<svg xmlns="http://www.w3.org/2000/svg" width="22.093" height="29.224" viewBox="0 0 22.093 29.224">
  <defs>
    <style>
      .cls-1 {
        fill: #fff;
      }
    </style>
  </defs>
  <path id="Icon_awesome-bone" data-name="Icon awesome-bone" class="cls-1" d="M24.965,12.291A2.761,2.761,0,0,0,26.679,9.81V9.525a2.951,2.951,0,0,0-3.1-2.775,3.092,3.092,0,0,0-2.942,1.9c-.32.859-.484,1.684-1.589,1.684H7.631c-1.141,0-1.316-.953-1.589-1.684A3.092,3.092,0,0,0,3.1,6.75,2.951,2.951,0,0,0,0,9.525V9.81a2.761,2.761,0,0,0,1.714,2.482.456.456,0,0,1,0,.853A2.761,2.761,0,0,0,0,15.626v.285a2.951,2.951,0,0,0,3.1,2.775,3.092,3.092,0,0,0,2.942-1.9c.32-.859.484-1.684,1.589-1.684H19.047c1.141,0,1.316.953,1.589,1.684a3.093,3.093,0,0,0,2.942,1.9,2.951,2.951,0,0,0,3.1-2.775v-.285a2.76,2.76,0,0,0-1.714-2.482A.456.456,0,0,1,24.965,12.291Z" transform="translate(16.935 -2.853) rotate(65)"/>
</svg>
