<svg xmlns="http://www.w3.org/2000/svg" width="30.041" height="24.143" viewBox="0 0 30.041 24.143">
  <defs>
    <style>
      .cls-1 {
        fill: #fff;
      }
    </style>
  </defs>
  <g id="Group_136" data-name="Group 136" transform="translate(-40 -452)">
    <path id="Path_63" data-name="Path 63" class="cls-1" d="M9.518,10.435c-.168.2-.329.4-.483.617a62.855,62.855,0,0,0,8.328,7.624,65.016,65.016,0,0,0,7.47,5.036c.4.221.785.436,1.16.63.168-.2.329-.4.483-.617a10.041,10.041,0,0,0,1.562-3.594c.054-.215.1-.429.141-.637A10.777,10.777,0,0,0,13.105,7.68,10.008,10.008,0,0,0,9.518,10.435Z" transform="translate(37.433 446.59)"/>
    <path id="Path_64" data-name="Path 64" class="cls-1" d="M28.147,22.161a12.491,12.491,0,0,1-.5,1.173,16.76,16.76,0,0,1,2.139,3.111c.161.275.5.878.06.831a3.2,3.2,0,0,1-.369-.087,25.437,25.437,0,0,1-5.653-2.508,66.574,66.574,0,0,1-7.6-5.116,62.653,62.653,0,0,1-8.757-8.08A23.015,23.015,0,0,1,5.08,8.274a5.065,5.065,0,0,1-.376-.7c-.168-.416.335-.342.469-.308a14.05,14.05,0,0,1,3.9,1.6,5.636,5.636,0,0,1,.932-.764,21.91,21.91,0,0,0-4.372-2.38c-1.549-.59-2.756-.456-3.185.248C1.633,7.3,3.39,10.816,6.83,14.819a10.776,10.776,0,0,0,15.644,12.07,38.243,38.243,0,0,0,6.5,2.34c1.6.409,2.709.369,3.138-.329C32.854,27.68,31.3,25.427,28.147,22.161Z" transform="translate(37.747 446.652)"/>
  </g>
</svg>
