<svg xmlns="http://www.w3.org/2000/svg" width="30.041" height="26.709" viewBox="0 0 30.041 26.709">
  <defs>
    <style>
      .cls-1 {
        fill: #fff;
      }
    </style>
  </defs>
  <path id="Icon_awesome-leaf" data-name="Icon awesome-leaf" class="cls-1" d="M28.49.506A.811.811,0,0,0,27.014.443,8.944,8.944,0,0,1,19.2,5.007H15.023A10.017,10.017,0,0,0,5.008,15.021a10.313,10.313,0,0,0,.078,1.069A24.955,24.955,0,0,1,20.03,11.683a.835.835,0,1,1,0,1.669C6.917,13.352,1.357,21.39.126,24.41a1.671,1.671,0,0,0,3.093,1.267,13.722,13.722,0,0,1,3.75-4.726,9.992,9.992,0,0,0,9.123,4.027c8.189-.595,13.952-7.939,13.952-16.931A18.967,18.967,0,0,0,28.49.506Z" transform="translate(-0.004 0.002)"/>
</svg>
