<svg xmlns="http://www.w3.org/2000/svg" width="34.22" height="34.171" viewBox="0 0 34.22 34.171">
  <defs>
    <style>
      .cls-1 {
        fill: #fff;
      }
    </style>
  </defs>
  <path id="Path_70" data-name="Path 70" class="cls-1" d="M429.318,105.061a.909.909,0,0,1-.9-1.06l.885-5.284-.264-.073a10.757,10.757,0,0,1-5.112-3.138l-.182-.2-4.439,3.166a.9.9,0,0,1-.527.169.909.909,0,0,1-.529-1.65l4.423-3.155-.137-.238a10.749,10.749,0,0,1-1.413-5.986l.017-.287-.3-.033-.036,0-5.218-.874a.909.909,0,0,1,.151-1.807.919.919,0,0,1,.152.013l5.218.874a.108.108,0,0,1,.024.005l.024.005.281.061.078-.276a10.757,10.757,0,0,1,3.147-5.076l.206-.186-.176-.234-3.076-4.309a.91.91,0,1,1,1.481-1.057l3.067,4.3.009.013.158.228.242-.138a10.788,10.788,0,0,1,5.332-1.415c.242,0,.488.008.73.025l.358.024-.036-.357a.916.916,0,0,1,.007-.242l.874-5.218a.909.909,0,0,1,.9-.76.918.918,0,0,1,.152.013.909.909,0,0,1,.746,1.048l-.874,5.218a.91.91,0,0,1-.076.242l-.154.324.345.1a10.751,10.751,0,0,1,5.194,3.3l.22.253.23-.242a.972.972,0,0,1,.136-.121l4.308-3.072a.909.909,0,1,1,1.056,1.481L441.709,82.5a.924.924,0,0,1-.173.1l-.309.131.162.294a10.757,10.757,0,0,1,1.32,5.816l-.017.287.31.035h.025l5.218.874a.911.911,0,1,1-.3,1.8l-5.218-.874a.121.121,0,0,1-.025-.005l-.024-.005-.28-.061-.078.277a10.742,10.742,0,0,1-3.264,5.181l-.224.2.193.227a.677.677,0,0,1,.049.061l3.072,4.308a.91.91,0,0,1-1.481,1.056l-3.072-4.307c-.017-.024-.034-.05-.049-.077l-.148-.259-.261.144a10.79,10.79,0,0,1-5.2,1.343c-.185,0-.374,0-.559-.015l-.27-.014-.887,5.294A.909.909,0,0,1,429.318,105.061Zm-.754-16.913a3.183,3.183,0,0,0-.522,6.323,3.242,3.242,0,0,0,.53.044,3.184,3.184,0,0,0,.522-6.323A3.235,3.235,0,0,0,428.564,88.148Zm8.375-1.372a2.637,2.637,0,0,0-.433,5.239,2.667,2.667,0,0,0,.439.037,2.638,2.638,0,0,0,.433-5.239A2.674,2.674,0,0,0,436.939,86.776Zm-5.98-5.864a2.181,2.181,0,0,0-.358,4.336,2.211,2.211,0,0,0,.364.03,2.181,2.181,0,0,0,.358-4.336A2.218,2.218,0,0,0,430.958,80.911Z" transform="translate(-414.819 -70.89)"/>
</svg>
