<svg xmlns="http://www.w3.org/2000/svg" width="31.369" height="28.081" viewBox="0 0 31.369 28.081">
  <defs>
    <style>
      .cls-1 {
        fill: #fff;
      }
    </style>
  </defs>
  <g id="Group_137" data-name="Group 137" transform="translate(-181.369 -749.077)">
    <path id="Path_65" data-name="Path 65" class="cls-1" d="M88.149,82.215a9.271,9.271,0,0,1-4.885-1.689A24,24,0,0,1,75.9,72.306a24.248,24.248,0,0,1-3.363-10.554c-.15-3.36.827-5.827,2.762-6.947s4.547-.74,7.347,1.063a24,24,0,0,1,7.366,8.219,24.248,24.248,0,0,1,3.363,10.554c.15,3.36-.827,5.827-2.762,6.966A5.2,5.2,0,0,1,88.149,82.215Zm-10-26.176a3.591,3.591,0,0,0-1.9.494c-1.522.892-2.292,2.923-2.18,5.713a21.633,21.633,0,0,0,2.988,9.377A21.229,21.229,0,0,0,83.6,78.931c2.33,1.5,4.472,1.841,5.994.968,1.522-.892,2.292-2.923,2.18-5.713a21.633,21.633,0,0,0-2.988-9.377A21.229,21.229,0,0,0,82.249,57.5,7.531,7.531,0,0,0,78.153,56.039Z" transform="translate(114.1 694.944)"/>
    <circle id="Ellipse_21" data-name="Ellipse 21" class="cls-1" cx="3.039" cy="3.039" r="3.039" transform="translate(194.006 760.091)"/>
    <path id="Path_66" data-name="Path 66" class="cls-1" d="M75.3,81.409c-1.935-1.12-2.912-3.588-2.762-6.967A24.249,24.249,0,0,1,75.9,63.888a24.005,24.005,0,0,1,7.366-8.219c2.8-1.8,5.411-2.183,7.347-1.063s2.912,3.607,2.762,6.967a24.25,24.25,0,0,1-3.363,10.554,24.182,24.182,0,0,1-7.366,8.219,9.324,9.324,0,0,1-4.885,1.689A4.54,4.54,0,0,1,75.3,81.409ZM83.621,57.32a21.243,21.243,0,0,0-6.539,7.308,21.481,21.481,0,0,0-2.988,9.377c-.132,2.79.658,4.822,2.18,5.714s3.645.55,5.994-.968a21.243,21.243,0,0,0,6.539-7.308,21.481,21.481,0,0,0,2.988-9.377c.113-2.79-.658-4.822-2.18-5.714a3.724,3.724,0,0,0-1.9-.494A7.962,7.962,0,0,0,83.621,57.32Z" transform="translate(114.1 695.103)"/>
    <path id="Path_67" data-name="Path 67" class="cls-1" d="M77.294,94.526a9.258,9.258,0,0,1-3.948,3.31,25.568,25.568,0,0,1-10.957,2.351,25.756,25.756,0,0,1-11.015-2.1c-3.043-1.447-4.737-3.418-4.776-5.571-.019-2.152,1.618-4.16,4.622-5.679a25.568,25.568,0,0,1,10.957-2.351,25.756,25.756,0,0,1,11.015,2.1c3.043,1.447,4.737,3.418,4.776,5.571A4.62,4.62,0,0,1,77.294,94.526ZM49.122,90.71a3.5,3.5,0,0,0-.52,1.809c.019,1.7,1.425,3.292,3.967,4.486a22.78,22.78,0,0,0,9.782,1.863,22.744,22.744,0,0,0,9.744-2.08c2.5-1.266,3.871-2.894,3.851-4.576-.019-1.7-1.425-3.292-3.967-4.486A22.78,22.78,0,0,0,62.2,85.862a22.744,22.744,0,0,0-9.744,2.08A7.8,7.8,0,0,0,49.122,90.71Z" transform="translate(134.77 670.773)"/>
  </g>
</svg>
