<svg xmlns="http://www.w3.org/2000/svg" width="30.041" height="19.202" viewBox="0 0 30.041 19.202">
  <defs>
    <style>
      .cls-1 {
        fill: #fff;
      }
    </style>
  </defs>
  <path id="Icon_awesome-vr-cardboard" data-name="Icon awesome-vr-cardboard" class="cls-1" d="M28.538,4.5H1.5A1.554,1.554,0,0,0,0,6.1v16a1.554,1.554,0,0,0,1.5,1.6h7.52a3,3,0,0,0,2.739-1.887l1.3-3.082A2.182,2.182,0,0,1,15.02,17.3a2.182,2.182,0,0,1,1.956,1.431l1.3,3.082A3,3,0,0,0,21.018,23.7h7.52a1.554,1.554,0,0,0,1.5-1.6V6.1A1.554,1.554,0,0,0,28.538,4.5ZM7.51,16.5a3.107,3.107,0,0,1-3-3.2,3.107,3.107,0,0,1,3-3.2,3.107,3.107,0,0,1,3,3.2A3.107,3.107,0,0,1,7.51,16.5Zm15.02,0a3.107,3.107,0,0,1-3-3.2,3.01,3.01,0,1,1,6.008,0A3.107,3.107,0,0,1,22.53,16.5Z" transform="translate(0 -4.5)"/>
</svg>
