<svg xmlns="http://www.w3.org/2000/svg" width="103.906" height="94" viewBox="0 0 103.906 94">
  <g id="Group_135" data-name="Group 135" transform="translate(-181.369 -749.077)">
    <path id="Path_65" data-name="Path 65" d="M125.347,148.045c-5.017,0-10.606-1.906-16.513-5.655-9.209-5.91-18.037-15.632-24.9-27.515s-10.86-24.4-11.368-35.331c-.508-11.247,2.794-19.508,9.336-23.257s15.369-2.478,24.832,3.558c9.209,5.91,18.037,15.632,24.9,27.515s10.86,24.4,11.368,35.331c.508,11.247-2.794,19.508-9.336,23.321A17.7,17.7,0,0,1,125.347,148.045ZM91.56,60.418a12.228,12.228,0,0,0-6.414,1.652C80,65.057,77.4,71.856,77.779,81.2c.445,9.659,4,20.779,10.1,31.391,6.1,10.548,13.909,19.254,22.1,24.465,7.875,5.02,15.115,6.164,20.26,3.241,5.144-2.987,7.748-9.786,7.367-19.127-.445-9.659-4-20.779-10.1-31.391-6.1-10.548-13.909-19.254-22.1-24.465C100.452,62.006,95.688,60.418,91.56,60.418Z" transform="translate(125.536 695.032)" fill="#fff"/>
    <circle id="Ellipse_21" data-name="Ellipse 21" cx="9.656" cy="9.656" r="9.656" transform="translate(223.635 786.461)" fill="#fff"/>
    <path id="Path_66" data-name="Path 66" d="M81.907,145.813c-6.542-3.749-9.844-12.01-9.336-23.321.508-10.93,4.509-23.448,11.368-35.331s15.687-21.605,24.9-27.515c9.463-6.037,18.291-7.308,24.832-3.559S143.511,68.161,143,79.408c-.508,10.93-4.509,23.448-11.368,35.331-6.859,11.819-15.687,21.605-24.9,27.515C100.833,146,95.18,147.91,90.226,147.91A15.461,15.461,0,0,1,81.907,145.813Zm28.135-80.638c-8.129,5.211-16,13.853-22.1,24.465-6.1,10.548-9.653,21.669-10.1,31.391-.445,9.341,2.223,16.14,7.367,19.127s12.321,1.843,20.26-3.241c8.129-5.211,16-13.853,22.1-24.465,6.1-10.548,9.654-21.669,10.1-31.391.381-9.341-2.223-16.14-7.367-19.127a12.682,12.682,0,0,0-6.414-1.652C119.822,60.345,115.059,61.934,110.042,65.174Z" transform="translate(125.536 695.103)" fill="#fff"/>
    <path id="Path_67" data-name="Path 67" d="M148.273,119.439c-2.424,4.344-6.889,8.248-13.076,11.522-9.7,5.1-22.58,8.059-36.294,8.185-13.714.189-26.662-2.456-36.485-7.3-10.078-5.037-15.691-11.9-15.819-19.392-.064-7.493,5.358-14.481,15.308-19.77,9.7-5.1,22.58-8.059,36.294-8.185,13.714-.189,26.662,2.456,36.485,7.3,10.078,5.037,15.691,11.9,15.819,19.392A16.7,16.7,0,0,1,148.273,119.439ZM54.955,106.154a12.66,12.66,0,0,0-1.722,6.3c.064,5.918,4.72,11.459,13.14,15.615,8.675,4.344,20.156,6.611,32.4,6.485s23.664-2.707,32.275-7.241c8.292-4.407,12.821-10.074,12.757-15.93-.064-5.918-4.72-11.459-13.14-15.615-8.675-4.344-20.156-6.611-32.4-6.485S74.6,91.987,65.99,96.52C60.7,99.291,57,102.565,54.955,106.154Z" transform="translate(134.77 684.233)" fill="#fff"/>
  </g>
</svg>
