<svg xmlns="http://www.w3.org/2000/svg" width="22px" height="22px" viewBox="0 0 50.649 50.649">
  <path id="Icon_awesome-phone-alt" data-name="Icon awesome-phone-alt" d="M49.2,35.791l-11.08-4.748a2.374,2.374,0,0,0-2.77.683L30.448,37.72A36.668,36.668,0,0,1,12.92,20.192l5.995-4.907a2.368,2.368,0,0,0,.683-2.77L14.849,1.435A2.39,2.39,0,0,0,12.128.06L1.84,2.434A2.374,2.374,0,0,0,0,4.748a45.9,45.9,0,0,0,45.9,45.9,2.374,2.374,0,0,0,2.315-1.84L50.59,38.521a2.4,2.4,0,0,0-1.386-2.73Z" transform="translate(0 0)" fill="#39db00"/>
</svg>
