<svg xmlns="http://www.w3.org/2000/svg" width="113.266" height="91.031" viewBox="0 0 113.266 91.031">
  <g id="Group_134" data-name="Group 134" transform="translate(-40 -452)">
    <path id="Path_63" data-name="Path 63" d="M10.855,20.8c-.632.758-1.239,1.517-1.82,2.326a236.992,236.992,0,0,0,31.4,28.746A245.138,245.138,0,0,0,68.6,70.856c1.492.834,2.958,1.643,4.374,2.377.632-.758,1.239-1.517,1.82-2.326,2.958-4.07,4.576-8.394,5.891-13.551.2-.809.379-1.618.531-2.4A40.633,40.633,0,0,0,24.382,10.406,37.735,37.735,0,0,0,10.855,20.8Z" transform="translate(55.353 450.151)" fill="#fff"/>
    <path id="Path_64" data-name="Path 64" d="M99.884,68.742a47.1,47.1,0,0,1-1.871,4.424A63.193,63.193,0,0,1,106.078,84.9c.607,1.037,1.871,3.312.228,3.135a12.057,12.057,0,0,1-1.391-.329C99.53,86.339,91.971,82.976,83.6,78.248A251.015,251.015,0,0,1,54.957,58.958C42.038,48.971,30.307,38.15,21.938,28.492a86.778,86.778,0,0,1-9.026-12.11A19.1,19.1,0,0,1,11.5,13.753c-.632-1.568,1.264-1.289,1.77-1.163a52.976,52.976,0,0,1,14.714,6.017,21.249,21.249,0,0,1,3.514-2.882A82.612,82.612,0,0,0,15.011,6.749C9.171,4.525,4.62,5.03,3,7.685c-3.084,5.031,3.54,18.279,16.509,33.373A40.63,40.63,0,0,0,78.5,86.566a144.192,144.192,0,0,0,24.5,8.824c6.043,1.542,10.214,1.391,11.832-1.239C117.632,89.549,111.767,81.055,99.884,68.742Z" transform="translate(37.747 446.652)" fill="#fff"/>
  </g>
</svg>
