<svg xmlns="http://www.w3.org/2000/svg" width="83.886" height="111.848" viewBox="0 0 83.886 111.848">
  <path id="Icon_metro-microscope" data-name="Icon metro-microscope" d="M73.82,99.8c9.428-2.048,16.493-10.923,16.493-20.971A20.823,20.823,0,0,0,82.9,62.945a33,33,0,0,0,.423-5.093A34.708,34.708,0,0,0,69.341,29.89l6.991-6.99V15.909l6.991-6.99L76.332,1.928,69.341,8.919h-6.99L34.389,36.881,20.408,43.871V57.852L27.4,64.843H41.379L48.37,50.862,58.856,40.376c6.062,3.649,10.486,9.878,10.486,17.476A20.968,20.968,0,0,0,48.37,78.824H6.427v6.991H27.4c2.089,1.556,4.594,2.417,6.99,3.5V99.8H20.408L6.427,113.776H90.313L76.332,99.8H73.82ZM62.351,78.824a6.991,6.991,0,1,1,6.991,6.991A6.986,6.986,0,0,1,62.351,78.824Z" transform="translate(-6.427 -1.928)" fill="#fff"/>
</svg>
