<svg xmlns="http://www.w3.org/2000/svg" width="48.411" height="52.988" viewBox="0 0 48.411 52.988">
  <path id="Icon_awesome-instagram" data-name="Icon awesome-instagram" d="M24.206,15.146c-6.869,0-12.409,6.066-12.409,13.585s5.54,13.585,12.409,13.585,12.409-6.066,12.409-13.585S31.074,15.146,24.206,15.146Zm0,22.418c-4.439,0-8.068-3.961-8.068-8.832S19.756,19.9,24.206,19.9s8.068,3.961,8.068,8.832-3.629,8.832-8.068,8.832ZM40.017,14.591a2.906,2.906,0,1,1-5.789,0,2.906,2.906,0,1,1,5.789,0Zm8.219,3.216c-.184-4.245-1.069-8-3.91-11.1s-6.264-4.067-10.141-4.28c-4-.248-15.973-.248-19.969,0-3.866.2-7.3,1.171-10.141,4.268S.359,13.55.165,17.795c-.227,4.375-.227,17.487,0,21.862.184,4.245,1.069,8,3.91,11.1s6.264,4.067,10.141,4.28c4,.248,15.973.248,19.969,0,3.877-.2,7.312-1.171,10.141-4.28s3.715-6.858,3.91-11.1c.227-4.375.227-17.475,0-21.85ZM43.073,44.351a8.594,8.594,0,0,1-4.6,5.037c-3.186,1.383-10.746,1.064-14.267,1.064s-11.092.307-14.267-1.064a8.593,8.593,0,0,1-4.6-5.037c-1.264-3.488-.972-11.765-.972-15.619s-.281-12.143.972-15.619a8.594,8.594,0,0,1,4.6-5.037c3.186-1.383,10.746-1.064,14.267-1.064S35.3,6.7,38.473,8.076a8.593,8.593,0,0,1,4.6,5.037c1.264,3.488.972,11.765.972,15.619S44.337,40.875,43.073,44.351Z" transform="translate(0.005 -2.238)" fill="#fff"/>
</svg>
