<svg xmlns="http://www.w3.org/2000/svg" width="59.73" height="48.512" viewBox="0 0 59.73 48.512">
  <path id="Icon_awesome-twitter" data-name="Icon awesome-twitter" d="M53.59,15.471c.038.531.038,1.061.038,1.592,0,16.183-12.317,34.83-34.83,34.83A34.594,34.594,0,0,1,0,46.4a25.325,25.325,0,0,0,2.956.152,24.516,24.516,0,0,0,15.2-5.23,12.263,12.263,0,0,1-11.446-8.49,15.437,15.437,0,0,0,2.312.189,12.947,12.947,0,0,0,3.221-.417A12.243,12.243,0,0,1,2.425,20.587v-.152A12.329,12.329,0,0,0,7.959,21.99,12.26,12.26,0,0,1,4.169,5.617,34.8,34.8,0,0,0,29.41,18.427a13.819,13.819,0,0,1-.3-2.8A12.253,12.253,0,0,1,50.293,7.247,24.1,24.1,0,0,0,58.063,4.29a12.209,12.209,0,0,1-5.382,6.746A24.541,24.541,0,0,0,59.73,9.142a26.315,26.315,0,0,1-6.14,6.329Z" transform="translate(0 -3.381)" fill="#fff"/>
</svg>
