<svg xmlns="http://www.w3.org/2000/svg" width="21.094" height="23.134" viewBox="0 0 21.094 23.134">
  <path id="Icon_awesome-calendar-alt" data-name="Icon awesome-calendar-alt" d="M0,20.965a2.216,2.216,0,0,0,2.26,2.169H18.834a2.216,2.216,0,0,0,2.26-2.169V8.675H0Zm15.067-8.856a.556.556,0,0,1,.565-.542h1.883a.556.556,0,0,1,.565.542v1.807a.556.556,0,0,1-.565.542H15.633a.556.556,0,0,1-.565-.542Zm0,5.783a.556.556,0,0,1,.565-.542h1.883a.556.556,0,0,1,.565.542V19.7a.556.556,0,0,1-.565.542H15.633a.556.556,0,0,1-.565-.542ZM9.04,12.109a.556.556,0,0,1,.565-.542h1.883a.556.556,0,0,1,.565.542v1.807a.556.556,0,0,1-.565.542H9.606a.556.556,0,0,1-.565-.542Zm0,5.783a.556.556,0,0,1,.565-.542h1.883a.556.556,0,0,1,.565.542V19.7a.556.556,0,0,1-.565.542H9.606A.556.556,0,0,1,9.04,19.7ZM3.013,12.109a.556.556,0,0,1,.565-.542H5.462a.556.556,0,0,1,.565.542v1.807a.556.556,0,0,1-.565.542H3.579a.556.556,0,0,1-.565-.542Zm0,5.783a.556.556,0,0,1,.565-.542H5.462a.556.556,0,0,1,.565.542V19.7a.556.556,0,0,1-.565.542H3.579a.556.556,0,0,1-.565-.542Zm15.821-15h-2.26V.723A.741.741,0,0,0,15.821,0H14.314a.741.741,0,0,0-.753.723V2.892H7.534V.723A.741.741,0,0,0,6.78,0H5.274A.741.741,0,0,0,4.52.723V2.892H2.26A2.216,2.216,0,0,0,0,5.061V7.229H21.094V5.061A2.216,2.216,0,0,0,18.834,2.892Z"/>
</svg>
