<svg xmlns="http://www.w3.org/2000/svg" viewBox="0 0 574.01 574.01"><defs><style>.cls-1{fill:#fff;}</style></defs><g id="Layer_1" data-name="Layer 1"><path class="cls-1" d="M654.12,634.9a15,15,0,0,1-14.83-17.5l14.6-87.22-4.35-1.2a177.54,177.54,0,0,1-84.38-51.79l-3-3.29-73.26,52.25a14.85,14.85,0,0,1-8.7,2.79,15,15,0,0,1-8.73-27.23l73-52.07-2.26-3.93a177.41,177.41,0,0,1-23.33-98.8l.28-4.74-4.93-.55-.59-.07-86.13-14.42A15,15,0,0,1,430,297.31a15.18,15.18,0,0,1,2.51.21l86.12,14.42c.14,0,.27.06.4.09l.4.09,4.63,1,1.28-4.56a177.55,177.55,0,0,1,51.94-83.79l3.4-3.07-2.91-3.86L527,146.72a15,15,0,0,1,24.44-17.44l50.62,71,.15.21,2.61,3.77,4-2.27a178.06,178.06,0,0,1,88-23.36c4,0,8.05.14,12.05.41l5.91.4-.59-5.89a15.12,15.12,0,0,1,.11-4l14.42-86.12a15,15,0,0,1,14.78-12.54,15.18,15.18,0,0,1,2.51.21,15,15,0,0,1,12.32,17.29l-14.42,86.12a15,15,0,0,1-1.25,4l-2.54,5.35,5.7,1.61a177.45,177.45,0,0,1,85.73,54.43l3.63,4.17,3.79-4a16,16,0,0,1,2.24-2l71.1-50.7a14.85,14.85,0,0,1,8.69-2.79,15,15,0,0,1,8.74,27.23l-71.1,50.71a15.23,15.23,0,0,1-2.86,1.59l-5.1,2.17,2.67,4.85a177.54,177.54,0,0,1,21.78,96l-.28,4.74,5.11.57.41,0,86.13,14.42A15,15,0,0,1,964,416.73a14.89,14.89,0,0,1-2.5-.21L875.38,402.1c-.14,0-.27-.06-.41-.09l-.39-.09-4.62-1-1.29,4.57A177.3,177.3,0,0,1,814.8,491l-3.7,3.26,3.19,3.75a11.16,11.16,0,0,1,.81,1l50.71,71.1a15,15,0,1,1-24.45,17.43l-50.7-71.09c-.28-.4-.56-.83-.81-1.27l-2.45-4.28-4.31,2.38a178.09,178.09,0,0,1-85.87,22.17c-3.06,0-6.17-.08-9.23-.24l-4.45-.23L668.9,622.36A15,15,0,0,1,654.12,634.9ZM641.68,355.74a52.54,52.54,0,0,0-8.62,104.36,53.51,53.51,0,0,0,8.74.73,52.55,52.55,0,0,0,8.61-104.37A53.37,53.37,0,0,0,641.68,355.74Zm138.23-22.65a43.53,43.53,0,0,0-7.14,86.47,44,44,0,0,0,7.24.61,43.54,43.54,0,0,0,7.14-86.48A44.12,44.12,0,0,0,779.91,333.09ZM681.2,236.3a36,36,0,0,0-5.91,71.57,36.5,36.5,0,0,0,6,.5,36,36,0,0,0,5.91-71.57A36.59,36.59,0,0,0,681.2,236.3Z" transform="translate(-409.99 -65.89)"/><path class="cls-1" d="M743.46,75.9h0a9.52,9.52,0,0,1,1.68.14,10,10,0,0,1,8.22,11.52l-14.42,86.12a9.52,9.52,0,0,1-.84,2.65L733,187l11.4,3.23a172.38,172.38,0,0,1,83.31,52.89L835,251.5l7.58-8.07a9.78,9.78,0,0,1,1.5-1.31l71.09-50.71a10,10,0,1,1,11.62,16.3l-71.09,50.7a10.13,10.13,0,0,1-1.92,1.07l-10.19,4.33,5.34,9.7a172.56,172.56,0,0,1,21.16,93.34l-.55,9.46,9.42,1.07.47.05h.17l86,14.4A10,10,0,0,1,964,411.73a10.58,10.58,0,0,1-1.68-.14l-86-14.41-.17,0-.46-.11L866.42,395l-2.56,9.13a172.38,172.38,0,0,1-52.36,83.09l-7.4,6.51,6.38,7.5c.18.21.41.48.55.68L861.73,573a10,10,0,0,1-16.29,11.63l-50.71-71.1c-.18-.26-.37-.55-.54-.85l-4.9-8.55-8.62,4.76a173.08,173.08,0,0,1-83.45,21.55c-3,0-6-.08-9-.24l-8.91-.46-1.48,8.81-13.89,83a10,10,0,0,1-9.85,8.36,9.34,9.34,0,0,1-1.67-.14,10,10,0,0,1-8.22-11.52l13.85-82.77,1.49-8.91-8.71-2.39a172.6,172.6,0,0,1-82-50.34l-6-6.57-7.23,5.16L486,522.08a9.92,9.92,0,0,1-5.8,1.86,10,10,0,0,1-5.82-18.16l69.31-49.43,7.38-5.27-4.51-7.86a172.4,172.4,0,0,1-22.67-96l.55-9.46L515,336.67l-.25,0-.3,0L428.35,322.2A10,10,0,0,1,430,302.32a9.52,9.52,0,0,1,1.68.14l86,14.4.16,0,.47.1,9.25,2.07,2.56-9.13a172.57,172.57,0,0,1,50.49-81.43l6.76-6.11-5.46-7.31-.21-.28-50.64-71a10,10,0,0,1,2.34-14A9.89,9.89,0,0,1,539.2,128a10,10,0,0,1,8.16,4.2l50.56,70.89.19.28,5.23,7.49,7.93-4.52a173.09,173.09,0,0,1,85.51-22.7c3.89,0,7.83.13,11.72.39l11.81.8L719.13,173a9.76,9.76,0,0,1,.07-2.66l14.42-86.12a10,10,0,0,1,9.84-8.36M681.28,313.37a41.12,41.12,0,1,0-6.82-.57,40.9,40.9,0,0,0,6.82.57M780,425.17a48.6,48.6,0,1,0-8.06-.67,48.36,48.36,0,0,0,8.06.67M641.8,465.83a57.55,57.55,0,0,0,9.44-114.3,58,58,0,0,0-9.56-.8,57.55,57.55,0,0,0,.12,115.1M743.46,65.89A20,20,0,0,0,723.75,82.6l-14.42,86.13a20.2,20.2,0,0,0-.16,5.31q-6.23-.42-12.39-.42a182.65,182.65,0,0,0-90.46,24,1.4,1.4,0,0,1-.1-.16l-50.71-71.09a20,20,0,1,0-32.59,23.24l50.71,71.1c.09.12.19.24.28.37a182.44,182.44,0,0,0-53.41,86.15c-.36-.08-.7-.18-1.06-.24l-86.13-14.41a20,20,0,0,0-6.61,39.48l86.13,14.41c.36.06.72.1,1.08.14a182.44,182.44,0,0,0,24,101.58l-69.31,49.43a20,20,0,1,0,23.24,32.6l69.64-49.67a182.58,182.58,0,0,0,86.75,53.25l-13.85,82.77a20,20,0,1,0,39.48,6.61l13.9-83q4.75.24,9.48.24a182.49,182.49,0,0,0,88.29-22.79,17.86,17.86,0,0,0,1.08,1.69l50.7,71.1a20,20,0,0,0,32.59-23.25l-50.7-71.09c-.34-.48-.71-.92-1.08-1.36a182.47,182.47,0,0,0,55.39-87.9c.35.07.7.17,1.06.23l86.13,14.42a21,21,0,0,0,3.33.27A20,20,0,0,0,967.29,382l-86.13-14.41c-.36-.06-.72-.09-1.08-.13a182.51,182.51,0,0,0-22.38-98.74,19.64,19.64,0,0,0,3.81-2.13l71.09-50.7a20,20,0,1,0-23.24-32.59L838.27,234a19.78,19.78,0,0,0-3,2.61,182.52,182.52,0,0,0-88.14-56,20.17,20.17,0,0,0,1.67-5.29l14.42-86.13a20,20,0,0,0-19.77-23.32ZM681.28,303.36a31,31,0,1,1,30.56-25.9,31.15,31.15,0,0,1-30.56,25.9ZM780,415.16A38.53,38.53,0,1,1,818,383a38.77,38.77,0,0,1-38,32.17ZM641.8,455.83a48.43,48.43,0,0,1-7.91-.66,47.54,47.54,0,0,1,7.79-94.43,48.43,48.43,0,0,1,7.91.66,47.54,47.54,0,0,1-7.79,94.43Z" transform="translate(-409.99 -65.89)"/></g></svg>