<svg xmlns="http://www.w3.org/2000/svg" width="112.652" height="112.652" viewBox="0 0 112.652 112.652">
  <path id="Icon_awesome-bone" data-name="Icon awesome-bone" d="M103,29.612a11.39,11.39,0,0,0,7.072-10.238V18.2c0-6.323-5.727-11.448-12.794-11.448-5.507,0-10.395,3.153-12.137,7.827-1.321,3.544-1.995,6.947-6.554,6.947h-47.1c-4.709,0-5.431-3.93-6.554-6.947C23.188,9.9,18.3,6.75,12.794,6.75,5.727,6.75,0,11.875,0,18.2v1.176A11.39,11.39,0,0,0,7.072,29.612a1.882,1.882,0,0,1,0,3.521A11.39,11.39,0,0,0,0,43.371v1.176C0,50.87,5.727,55.995,12.792,55.995c5.507,0,10.395-3.153,12.137-7.827,1.321-3.544,1.995-6.947,6.554-6.947h47.1c4.709,0,5.431,3.93,6.554,6.947,1.742,4.674,6.632,7.827,12.137,7.827,7.065,0,12.792-5.125,12.792-11.448V43.371A11.388,11.388,0,0,0,103,33.133,1.883,1.883,0,0,1,103,29.612Z" transform="translate(39.594 -4.773) rotate(45)" fill="#fff"/>
</svg>
