<svg xmlns="http://www.w3.org/2000/svg" width="32.629" height="29.473" viewBox="0 0 32.629 29.473">
  <g id="Menu_-_hambruger" data-name="Menu - hambruger" transform="translate(0 0)">
    <path id="Path_55" data-name="Path 55" d="M35.769,14.335H5.86c-.748,0-1.36-.947-1.36-2.105h0c0-1.158.612-2.105,1.36-2.105h29.91c.748,0,1.36.947,1.36,2.105h0C37.129,13.388,36.517,14.335,35.769,14.335Z" transform="translate(-4.5 -10.125)" fill="#272727"/>
    <path id="Path_56" data-name="Path 56" d="M35.769,21.085H5.86c-.748,0-1.36-.947-1.36-2.105h0c0-1.158.612-2.105,1.36-2.105h29.91c.748,0,1.36.947,1.36,2.105h0C37.129,20.138,36.517,21.085,35.769,21.085Z" transform="translate(-4.5 -4.244)" fill="#272727"/>
    <path id="Path_57" data-name="Path 57" d="M35.769,27.835H5.86c-.748,0-1.36-.947-1.36-2.105h0c0-1.158.612-2.105,1.36-2.105h29.91c.748,0,1.36.947,1.36,2.105h0C37.129,26.888,36.517,27.835,35.769,27.835Z" transform="translate(-4.5 1.637)" fill="#272727"/>
  </g>
</svg>
