<svg xmlns="http://www.w3.org/2000/svg" width="102.386" height="91.031" viewBox="0 0 102.386 91.031">
  <path id="Icon_awesome-leaf" data-name="Icon awesome-leaf" d="M97.093,1.727a2.765,2.765,0,0,0-5.031-.213A30.485,30.485,0,0,1,65.414,17.069H51.192A34.141,34.141,0,0,0,17.06,51.2a35.15,35.15,0,0,0,.267,3.644c11.342-8.124,27.714-15.022,50.931-15.022a2.844,2.844,0,1,1,0,5.689C23.567,45.512,4.616,72.906.421,83.2a5.7,5.7,0,0,0,10.542,4.32c.267-.64,3.715-8.515,12.782-16.106A34.056,34.056,0,0,0,54.836,85.137c27.91-2.027,47.554-27.057,47.554-57.7a64.645,64.645,0,0,0-5.3-25.706Z" transform="translate(-0.004 0.002)" fill="#fff"/>
</svg>
