<svg xmlns="http://www.w3.org/2000/svg" width="116.541" height="74.494" viewBox="0 0 116.541 74.494">
  <path id="Icon_awesome-vr-cardboard" data-name="Icon awesome-vr-cardboard" d="M110.714,4.5H5.827A6.027,6.027,0,0,0,0,10.708V72.786a6.027,6.027,0,0,0,5.827,6.208H35a11.639,11.639,0,0,0,10.627-7.321l5.051-11.958c1.437-3.4,4.376-5.552,7.59-5.552s6.153,2.149,7.59,5.552l5.051,11.958a11.641,11.641,0,0,0,10.627,7.321h29.175a6.027,6.027,0,0,0,5.827-6.208V10.708A6.027,6.027,0,0,0,110.714,4.5ZM29.135,51.059c-6.437,0-11.654-5.558-11.654-12.416S22.7,26.227,29.135,26.227s11.654,5.558,11.654,12.416S35.572,51.059,29.135,51.059Zm58.27,0c-6.437,0-11.654-5.558-11.654-12.416s5.217-12.416,11.654-12.416,11.654,5.558,11.654,12.416S93.842,51.059,87.405,51.059Z" transform="translate(0 -4.5)" fill="#fff"/>
</svg>
