<svg id="Layer_2" data-name="Layer 2" xmlns="http://www.w3.org/2000/svg" viewBox="0 0 446.84 648.36"><path d="M644.93,84.07c156.31,23,266,170.55,243,326.86s-170.55,266-326.86,243l2.62-17.81c146.54,21.57,284.87-81.27,306.43-227.81S788.85,123.44,642.31,101.88" transform="translate(-480.34 -44.64)"/><path d="M677.16,128.16c132.12,40.68,207.36,182.88,166.68,315S661,650.52,528.84,609.84l5.3-17.2c122.68,37.77,254.72-32.09,292.5-154.78s-32.09-254.72-154.78-292.5" transform="translate(-480.34 -44.64)"/><path d="M703.67,178.2C808.45,233.44,849.21,365.08,794,469.8S607,615.4,502.2,560l8.4-15.92c96.07,50.69,216.83,13.35,267.52-82.72s13.35-216.83-82.72-267.52" transform="translate(-480.34 -44.64)"/><path d="M725.83,237.25c72.25,67.41,76.21,182.32,8.83,254.5s-182.09,76.12-254.32,8.82l12.19-13.08c65,60.6,168.36,57,229-8s57-168.36-8-229" transform="translate(-480.34 -44.64)"/><path d="M715,279C764.5,340.58,754.54,432,693,481.45S540,521,490.51,459.38l14.26-11.47C548.06,501.8,628,510.52,681.91,467.23S744.52,344,701.23,290.09" transform="translate(-480.34 -44.64)"/><path d="M698.29,318.61c27.67,52.33,7.38,118.16-44.95,145.82s-118.15,7.38-145.82-44.95l15.92-8.41c23.07,43.64,78,60.57,121.63,37.49s60.57-78,37.49-121.63" transform="translate(-480.34 -44.64)"/><path d="M671.21,345.81c12.72,37.41-7.59,78.66-45,91.37s-78.66-7.6-91.38-45l17-5.8a54,54,0,1,0,102.26-34.76" transform="translate(-480.34 -44.64)"/><path d="M638.63,368.63a36,36,0,0,1-72,.75l18.37-.19a18,18,0,0,0,36-.38" transform="translate(-480.34 -44.64)"/><path d="M603,44.64c177.84,0,324.18,146.34,324.18,324.18S780.84,693,603,693V675c167.87,0,306-138.13,306-306S770.87,63,603,63" transform="translate(-480.34 -44.64)"/></svg>