<svg xmlns="http://www.w3.org/2000/svg" viewBox="0 0 1252.83 517.91"><defs><style>.cls-1{fill:#fff;}</style></defs><g id="Layer_1" data-name="Layer 1"><path class="cls-1" d="M214.65,160.69c124.86,18.38,212.48,136.24,194.1,261.1S272.52,634.27,147.66,615.9l2.09-14.23c117.06,17.23,227.55-64.92,244.78-182s-64.92-227.55-182-244.77" transform="translate(-83.17 -129.2)"/><path class="cls-1" d="M240.39,195.91C345.93,228.41,406,342,373.54,447.53S227.45,613.17,121.91,580.68l4.23-13.74c98,30.17,203.48-25.64,233.65-123.64S334.16,239.83,236.16,209.65" transform="translate(-83.17 -129.2)"/><path class="cls-1" d="M261.57,235.88c83.7,44.13,116.25,149.28,72.18,232.93s-149.38,116.3-233.12,72.08l6.71-12.71c76.74,40.49,173.21,10.66,213.7-66.08S331.7,288.9,255,248.41" transform="translate(-83.17 -129.2)"/><path class="cls-1" d="M279.27,283.06c57.71,53.84,60.88,145.63,7.05,203.28s-145.46,60.81-203.15,7.05l9.74-10.45c51.92,48.41,134.48,45.52,182.89-6.4s45.52-134.49-6.4-182.9" transform="translate(-83.17 -129.2)"/><path class="cls-1" d="M270.64,316.4C310.16,365.59,302.2,438.6,253,478.12s-122.2,31.56-161.72-17.63l11.4-9.16c34.58,43,98.45,50,141.5,15.43s50-98.46,15.43-141.5" transform="translate(-83.17 -129.2)"/><path class="cls-1" d="M257.27,348.05c22.1,41.79,5.89,94.38-35.9,116.48S127,470.42,104.89,428.62l12.71-6.72c18.43,34.86,62.29,48.38,97.16,30s48.38-62.29,30-97.16" transform="translate(-83.17 -129.2)"/><path class="cls-1" d="M235.64,369.77a57.53,57.53,0,0,1-108.94,37l13.61-4.63A43.14,43.14,0,0,0,222,374.41" transform="translate(-83.17 -129.2)"/><path class="cls-1" d="M209.61,388a28.76,28.76,0,1,1-57.51.59l14.67-.15a14.38,14.38,0,0,0,28.76-.29" transform="translate(-83.17 -129.2)"/><path class="cls-1" d="M181.15,129.2c142.06,0,259,116.89,259,259s-116.89,259-259,259V632.73c134.09,0,244.43-110.34,244.43-244.44S315.24,143.86,181.15,143.86" transform="translate(-83.17 -129.2)"/><path d="M1179.86,164.72a9.76,9.76,0,1,0,0,19.5c5.71,0,10.42-4.2,10.42-9.75S1185.57,164.72,1179.86,164.72Z" transform="translate(-83.17 -129.2)"/><path d="M525.53,294.15c17.82,0,33.28-7.57,43.53-19.67L558,265.07a42.74,42.74,0,0,1-32.44,15C501.16,280,482,259.19,482,234.48c0-24.88,19.16-46.06,43.53-46.06a42.77,42.77,0,0,1,32.44,15L569.06,194c-10.25-12.1-25.71-19.66-43.53-19.66-32.78,0-58.83,27.39-58.83,60.17S492.75,294.15,525.53,294.15Z" transform="translate(-83.17 -129.2)"/><path d="M622,294.15c22.35,0,41.18-16.47,41.18-41.35S644.36,211.62,622,211.62s-41,16.3-41,41.18S599.65,294.15,622,294.15Zm0-68.75c14.45,0,26.55,11.26,26.55,27.4,0,16.3-12.1,27.56-26.55,27.56-14.29,0-26.22-11.26-26.22-27.56C595.79,236.66,607.72,225.4,622,225.4Z" transform="translate(-83.17 -129.2)"/><path d="M792.44,292.13h14.62V246.75c0-22-10.76-35.13-30.42-35.13-7.9,0-20.17,2.69-27.4,16.81-4.54-10.76-14.45-16.81-25.88-16.81-11.1,0-21.35,5.55-25.22,14.12v-12.1H683.52v78.49h14.62V249.61c0-16.64,11.1-23.87,22.19-23.87,10.42,0,17.65,8.57,17.65,21.85v44.54H752.6V252.8c0-17.48,7.23-27.23,21.18-27.06,11.43,0,18.66,8.74,18.66,21.85Z" transform="translate(-83.17 -129.2)"/><path d="M846.05,249.61c0-16.64,11.1-23.87,22.19-23.87,10.42,0,17.65,8.57,17.65,21.85v44.54h14.62V252.8c0-17.48,7.23-27.23,21.18-27.06,11.43,0,18.66,8.74,18.66,21.85v44.54H955V246.75c0-22-10.76-35.13-30.42-35.13-7.9,0-20.17,2.69-27.4,16.81-4.54-10.76-14.46-16.81-25.88-16.81-11.1,0-21.35,5.55-25.22,14.12v-12.1H831.43v78.49h14.62Z" transform="translate(-83.17 -129.2)"/><path d="M1009.93,294.15c8.74,0,21.34-4.37,26.05-14.29v12.27h14.62V213.64H1036v43.19c-.17,17-13.28,23.53-24.2,23.53S993,272,993,258.68v-45H978.33V259C978.16,281,990.26,294.15,1009.93,294.15Z" transform="translate(-83.17 -129.2)"/><path d="M1116.66,211.62c-8.57,0-21.35,4.37-26.05,13.95V213.64H1076v78.49h14.63V249.61c0-17,13.11-23.54,24-23.54s19,8.41,19,21.52v44.54h14.63V246.75C1148.43,224.73,1136.16,211.62,1116.66,211.62Z" transform="translate(-83.17 -129.2)"/><rect x="1089.46" y="84.44" width="14.62" height="78.49"/><polygon points="1150.13 54.85 1135.51 54.85 1135.51 84.44 1121.39 84.44 1121.39 97.04 1135.51 97.04 1135.51 162.93 1150.13 162.93 1150.13 97.04 1167.11 97.04 1167.11 84.44 1150.13 84.44 1150.13 54.85"/><polygon points="1237.03 84.44 1213 142.26 1189.3 84.44 1173.5 84.44 1205.1 160.58 1188.62 201.09 1204.09 201.09 1252.83 84.44 1237.03 84.44"/><path d="M508.05,441.47c-15.47,0-25.21-10.42-25.72-20.68H467.2c.17,18,16.48,34.8,40.85,34.8,24,0,38.66-16.64,38.66-34.63,0-16.47-11.77-26.56-31.43-31.77l-15.13-4c-15.46-4-16.81-12.1-16.81-16.14,0-11.43,10.76-19.16,22.36-19.16,12.43,0,22,7.9,22,19.5h15.13c0-20.67-16.3-33.62-36.64-33.62-20.17,0-38.15,13.45-38.15,33.45,0,9.41,3.86,23.87,28.4,29.75l15,3.7c9.75,2.52,20,7.56,20,18.83C531.41,431.72,523,441.47,508.05,441.47Z" transform="translate(-83.17 -129.2)"/><path d="M603.68,455.59c12.27,0,23-4.71,29.92-12.44l-9.24-9.58a27.74,27.74,0,0,1-20.17,8.23c-15.47,0-27.9-11.43-27.9-27.56s12.43-27.4,27.9-27.4a27.7,27.7,0,0,1,20.17,8.24l9.24-9.58c-6.89-7.57-17.65-12.44-29.92-12.44-22.52,0-42.19,16.3-42.19,41.18S581.16,455.59,603.68,455.59Z" transform="translate(-83.17 -129.2)"/><rect x="568.92" y="245.88" width="14.62" height="78.49"/><path d="M649.06,346.17a10,10,0,0,0,10.26,9.74c5.71,0,10.42-4.2,10.42-9.74s-4.71-9.75-10.42-9.75A10,10,0,0,0,649.06,346.17Z" transform="translate(-83.17 -129.2)"/><path d="M766.21,414.07c0-24.88-16.64-41-39-41s-40.34,16.13-40.34,41,18,41.52,40.34,41.52c15.13,0,29.25-7.4,36-21l-12.61-5.05c-4.54,7.9-13.28,12.27-22.86,12.27-13.44,0-23.53-7.22-25.71-21.17h63.87C766.05,418.44,766.21,416.26,766.21,414.07Zm-64-6.05c2.36-14.12,11.77-21.18,25.05-21.18,12.94,0,22.52,7.73,24.37,21.18Z" transform="translate(-83.17 -129.2)"/><path d="M800.84,411c0-17,13.11-23.53,24-23.53s19,8.41,19,21.52v44.54h14.62V408.19c.17-22-12.1-35.13-31.6-35.13-8.57,0-21.35,4.37-26,13.95V375.07H786.21v78.5h14.63Z" transform="translate(-83.17 -129.2)"/><path d="M949.42,443.15l-9.24-9.58A27.74,27.74,0,0,1,920,441.8c-15.47,0-27.91-11.43-27.91-27.56s12.44-27.4,27.91-27.4a27.7,27.7,0,0,1,20.17,8.24l9.24-9.58c-6.89-7.57-17.65-12.44-29.92-12.44-22.52,0-42.19,16.3-42.19,41.18S897,455.59,919.5,455.59C931.77,455.59,942.53,450.88,949.42,443.15Z" transform="translate(-83.17 -129.2)"/><path d="M1037,434.58l-12.61-5.05c-4.54,7.9-13.27,12.27-22.85,12.27-13.45,0-23.54-7.22-25.72-21.17h63.87c.17-2.19.33-4.37.33-6.56,0-24.88-16.64-41-39-41s-40.34,16.13-40.34,41,18,41.52,40.34,41.52C1016.15,455.59,1030.27,448.19,1037,434.58Zm-36-47.74c12.94,0,22.52,7.73,24.37,21.18H976C978.33,393.9,987.74,386.84,1001,386.84Z" transform="translate(-83.17 -129.2)"/><polygon points="495.47 364.56 454.29 450.45 412.95 364.56 399.16 364.56 385.05 480.37 400 480.37 410.59 392.13 447.74 467.76 461.02 467.76 497.83 392.13 508.58 480.37 523.54 480.37 509.26 364.56 495.47 364.56"/><path d="M684.53,574.27c-.17,17-13.28,23.53-24.2,23.53s-18.83-8.4-18.83-21.68v-45H626.88v45.38c-.17,22,11.93,35.13,31.6,35.13,8.74,0,21.35-4.37,26-14.28v12.27h14.63v-78.5H684.53Z" transform="translate(-83.17 -129.2)"/><path d="M757.48,565l-11.6-2.85c-5-1.18-10.08-4-10.08-9.42,0-6,5-10.92,12.6-10.92,6.22,0,12.44,4,12.61,10.08h14.12c0-15.8-13.79-22.85-27.06-22.85-15.8,0-26.9,10.25-26.9,23.19,0,12.61,7.57,19,20.68,22.52l10.75,2.52c6.22,1.35,10.76,4.37,10.76,10.26,0,6.38-5.88,11.26-15.8,11.26-9.58,0-15.46-5.55-15.63-12.27H718.31c.68,16.13,15.13,25,29.25,25,16.3,0,30.42-9.24,30.42-23.87C778,578.81,773.78,569.06,757.48,565Z" transform="translate(-83.17 -129.2)"/><path d="M832.78,529.06c-22.36,0-40.34,16.13-40.34,41s18,41.51,40.34,41.51c15.12,0,29.24-7.39,36-21l-12.61-5c-4.54,7.9-13.28,12.27-22.86,12.27-13.45,0-23.53-7.23-25.72-21.18h63.88c.16-2.18.33-4.37.33-6.55C871.77,545.19,855.13,529.06,832.78,529.06Zm-25,35c2.36-14.12,11.77-21.18,25-21.18,12.94,0,22.52,7.73,24.37,21.18Z" transform="translate(-83.17 -129.2)"/><path d="M948.42,574.27c-.17,17-13.28,23.53-24.21,23.53s-18.82-8.4-18.82-21.68v-45H890.76v45.38c-.16,22,11.94,35.13,31.6,35.13,8.74,0,21.35-4.37,26.06-14.28v12.27H963v-78.5H948.42Z" transform="translate(-83.17 -129.2)"/><path d="M1081.53,529.06c-7.9,0-20.17,2.68-27.39,16.8-4.54-10.75-14.46-16.8-25.89-16.8-11.09,0-21.34,5.54-25.21,14.11v-12.1H988.42v78.5H1003V567c0-16.64,11.09-23.87,22.19-23.87,10.42,0,17.65,8.58,17.65,21.85v44.55h14.62V570.24c0-17.49,7.23-27.23,21.18-27.07,11.43,0,18.65,8.74,18.65,21.85v44.55H1112V564.18C1112,542.16,1101.2,529.06,1081.53,529.06Z" transform="translate(-83.17 -129.2)"/></g></svg>